<svg xmlns="http://www.w3.org/2000/svg" width="1919.999" height="2539.768" viewBox="0 0 1919.999 2539.768"><path d="M0,439.85V1674.764H1778.709L680.589,576.643c-122.31-122.31-282.614-183.459-442.915-183.459A627.2,627.2,0,0,0,0,439.85" transform="translate(0 865.004)" fill="#fff"></path><path d="M354.673,468.972v.013a151.825,151.825,0,0,0,0,214.681L1237.514,1566.5V1137.112l-668.14-668.14a151.836,151.836,0,0,0-214.7,0" transform="translate(682.485 933.93)" fill="#fff"></path><path d="M538.378,471.981v.013a151.819,151.819,0,0,0,0,214.682L833.37,981.667V552.276l-80.3-80.294a151.836,151.836,0,0,0-214.694,0" transform="translate(1086.629 940.559)" fill="#fff"></path><path d="M0,0V429.392l668.144,668.144a151.84,151.84,0,0,0,214.694,0v-.016a151.813,151.813,0,0,0,0-214.681Z" fill="#fff"></path><path d="M0,610.08l80.294,80.294a151.829,151.829,0,0,0,214.694,0v-.01a151.817,151.817,0,0,0,0-214.685L0,180.691Z" transform="translate(0 397.52)" fill="#fff"></path></svg>