<svg xmlns="http://www.w3.org/2000/svg" id="uuid-66f2e72b-b38c-464b-8308-c7f2d2487934" width="925.43" height="1000" viewBox="0 0 925.43 1000"><defs><style>.uuid-ec88ec7d-e812-49c1-8f8c-e90a0a620b07,.uuid-1f555d16-c9b0-44f6-a41a-f61981d3e3a8{fill:#fff;}.uuid-1f555d16-c9b0-44f6-a41a-f61981d3e3a8{opacity:0;}</style></defs><g id="uuid-cea617a9-e2cb-4685-9c34-9f5ee65b33d6"><g id="uuid-46a426f5-fc5b-4320-855f-1b0b97927c99"><path class="uuid-ec88ec7d-e812-49c1-8f8c-e90a0a620b07" d="M750.46,602.57c-16.75,3.28-34,7.64-51.82,13.18-18.84,5.83-38.47,9.28-58.67,10.3-42.15,2.21-87.24-6-135.27-24.67v102.23c59.69,24.67,109.42,34.79,149.19,30.38-8.83,33.15-27.27,59.63-55.27,79.54-17.82,12.56-36.94,20.71-57.31,24.33-2.94,.51-5.83,.96-8.83,1.3-1.64,.17-3.34,.34-4.98,.45-.62,.06-1.3,.11-1.92,.11-1.19,.11-2.38,.17-3.56,.17-2.09,.11-4.19,.17-6.28,.17h-213.23c-39.43,0-73.15-13.8-101.1-41.47-28-27.95-41.98-61.67-41.98-101.1,0-2.6,.06-5.15,.17-7.69,1.75-36.1,15.61-67.21,41.81-93.41,5.26-5.26,10.69-10.01,16.29-14.31,.74-.51,1.47-1.02,2.21-1.53,5.66-4.19,11.54-7.81,17.6-10.92,19.63-10.18,41.3-15.22,65-15.22h213.23c59.97,0,112.36-18.16,157.28-54.48,5.88-4.75,11.65-9.79,17.31-15.16,1.3-1.24,2.6-2.55,3.9-3.85,4.64-4.58,9.11-9.34,13.24-14.14,4.19-4.81,8.15-9.67,11.94-14.65,1.36-1.75,2.66-3.51,3.9-5.32,12.73-17.88,22.74-36.89,30.15-56.97,.06,0,0-.06,0-.06,1.47-4.02,2.83-8.03,4.07-12.16v-.06c1.24-4.07,2.38-8.26,3.39-12.45,.51-2.09,1.02-4.19,1.47-6.34,1.3-6,2.38-12.05,3.22-18.22,.57-3.85,1.02-7.75,1.36-11.65,.23-2.15,.4-4.36,.57-6.51,.45-6.56,.68-13.18,.68-19.91,0-69.98-24.67-129.5-74-178.49-49.39-49.33-108.85-74-178.5-74h-213.23c-69.64,0-129.1,24.67-178.44,74-49.39,48.99-74.06,108.51-74.06,178.49,0,6.73,.23,13.41,.68,19.91,.17,2.15,.34,4.36,.57,6.51,.34,3.9,.79,7.81,1.36,11.65,.85,6.17,1.92,12.22,3.22,18.22,.62,2.89,1.3,5.71,2.04,8.54,.68,2.83,1.47,5.66,2.32,8.43,.79,2.83,1.7,5.6,2.6,8.32,11.09,33.04,29.36,63.03,54.76,90.18,2.09,2.21,4.3,4.47,6.51,6.68,1.3,1.3,2.6,2.55,3.9,3.79,5.66,5.37,11.37,10.47,17.26,15.22-5.88,4.75-11.6,9.84-17.26,15.28-1.3,1.24-2.6,2.55-3.9,3.85-35.47,35.47-58.22,76.15-68.23,122.15-1.64,7.64-2.94,15.45-3.9,23.42-.28,2.15-.51,4.3-.68,6.45-.23,2.15-.4,4.3-.57,6.51-.45,6.56-.68,13.18-.68,19.91,0,69.64,24.67,129.1,74.06,178.44,49.33,49.39,108.79,74.06,178.44,74.06h213.23c13.07,0,25.74-.85,38.08-2.6,5.83-.79,11.6-1.81,17.26-3,.79-.23,1.58-.4,2.38-.57,5.49-1.19,10.92-2.6,16.24-4.19q.06-.06,.11-.06c3.85-1.13,7.58-2.38,11.37-3.68,2.26-.85,4.58-1.7,6.85-2.55,3.39-1.3,6.68-2.66,9.96-4.13,.06-.06,.11-.11,.17-.11,12.9-5.66,25.29-12.62,37.17-20.76,8.54-5.71,16.75-12.11,24.78-19.18,4.81-4.19,9.5-8.6,14.14-13.24,4.3-4.3,8.43-8.66,12.28-13.13,37.57-42.88,58.05-92.95,61.33-150.32,.06-.68,.06-1.36,.11-2.04,.11-2.26,.23-4.53,.28-6.85,32.08-5.94,67.78-5.94,107.21,0v-102.23c-37.51-8.09-79.15-7.69-124.97,1.19ZM201.4,201.4c27.95-28,61.67-42.04,101.1-42.04h213.23c39.43,0,73.15,14.03,101.16,42.04,27.95,27.95,41.98,61.67,41.98,101.1,0,1.36,0,2.72-.06,4.07-1.13,52.84-24.27,92.33-69.42,118.41-.11,.06-.23,.11-.4,.23-2.94,1.75-5.94,3.45-9,4.98-19.41,9.9-40.85,14.82-64.27,14.82h-213.23c-23.42,0-44.86-4.92-64.27-14.82-2.72-1.36-5.43-2.89-8.03-4.47-.34-.17-.62-.34-.91-.51-45.49-26.02-68.68-65.63-69.81-118.64,0-1.36-.06-2.72-.06-4.07,0-39.43,13.97-73.15,41.98-101.1Z"></path><rect class="uuid-1f555d16-c9b0-44f6-a41a-f61981d3e3a8" width="925.43" height="1000"></rect></g></g></svg>