<?xml version="1.0" encoding="utf-8"?>
<!-- Generator: Adobe Illustrator 27.2.0, SVG Export Plug-In . SVG Version: 6.00 Build 0)  -->
<svg version="1.1" id="uuid-e5b71706-816b-4697-a774-4f51435401a4"
	 xmlns="http://www.w3.org/2000/svg" xmlns:xlink="http://www.w3.org/1999/xlink" x="0px" y="0px" viewBox="0 0 1024 1024"
	 style="enable-background:new 0 0 1024 1024;" xml:space="preserve">
<style type="text/css">
	.st0{fill:#FFFFFF;}
	.st1{fill:url(#SVGID_1_);}
</style>
<g id="uuid-42e8862a-79fc-4016-af8f-39b1ecdbdc69">
	<path class="st0" d="M924,1024H100C44.8,1024,0,979.2,0,924V100C0,44.8,44.8,0,100,0h824c55.2,0,100,44.8,100,100v824
		C1024,979.2,979.2,1024,924,1024z"/>
	
		<linearGradient id="SVGID_1_" gradientUnits="userSpaceOnUse" x1="805.7146" y1="721.2723" x2="208.0822" y2="302.8007" gradientTransform="matrix(1 0 0 -1 0 1024)">
		<stop  offset="0" style="stop-color:#4895EF"/>
		<stop  offset="1" style="stop-color:#670AB3"/>
	</linearGradient>
	<path class="st1" d="M781.5,594.5c-13.5,2.6-27.3,6.1-41.7,10.6c-15.2,4.7-31,7.5-47.2,8.3c-33.9,1.8-70.2-4.8-108.8-19.8v82.2
		c48,19.8,88,28,120,24.4c-7.1,26.7-21.9,48-44.5,64c-14.3,10.1-29.7,16.7-46.1,19.6c-2.4,0.4-4.7,0.8-7.1,1c-1.3,0.1-2.7,0.3-4,0.4
		c-0.5,0-1,0.1-1.5,0.1c-1,0.1-1.9,0.1-2.9,0.1c-1.7,0.1-3.4,0.1-5,0.1H421.1c-31.7,0-58.9-11.1-81.3-33.4
		c-22.5-22.5-33.8-49.6-33.8-81.3c0-2.1,0-4.1,0.1-6.2c1.4-29,12.6-54.1,33.6-75.1c4.2-4.2,8.6-8.1,13.1-11.5
		c0.6-0.4,1.2-0.8,1.8-1.2c4.5-3.4,9.3-6.3,14.1-8.8c15.8-8.2,33.2-12.2,52.3-12.2h171.5c48.2,0,90.4-14.6,126.5-43.8
		c4.7-3.8,9.4-7.9,13.9-12.2c1-1,2.1-2,3.1-3.1c3.7-3.7,7.3-7.5,10.7-11.4c3.4-3.9,6.5-7.8,9.6-11.8c1.1-1.4,2.1-2.8,3.1-4.3
		c10.2-14.4,18.3-29.7,24.3-45.8c0,0,0,0,0,0c1.2-3.2,2.3-6.5,3.3-9.8v0c1-3.3,1.9-6.6,2.7-10c0.4-1.7,0.8-3.4,1.2-5.1
		c1-4.8,1.9-9.7,2.6-14.6c0.5-3.1,0.8-6.2,1.1-9.4c0.2-1.7,0.3-3.5,0.5-5.2c0.4-5.3,0.5-10.6,0.5-16c0-56.3-19.8-104.2-59.5-143.6
		c-39.7-39.7-87.6-59.5-143.6-59.5H421.1c-56,0-103.9,19.8-143.5,59.5c-39.7,39.4-59.6,87.3-59.6,143.6c0,5.4,0.2,10.8,0.6,16
		c0.1,1.7,0.3,3.5,0.5,5.2c0.3,3.1,0.6,6.3,1.1,9.4c0.7,5,1.6,9.8,2.6,14.6c0.5,2.3,1.1,4.6,1.6,6.9c0.6,2.3,1.2,4.5,1.9,6.8
		c0.6,2.3,1.4,4.5,2.1,6.7c8.9,26.6,23.6,50.7,44.1,72.6c1.7,1.8,3.5,3.6,5.2,5.4c1,1,2.1,2,3.1,3c4.5,4.3,9.1,8.4,13.9,12.2
		c-4.7,3.8-9.3,7.9-13.9,12.3c-1,1-2.1,2-3.1,3.1c-28.5,28.5-46.8,61.3-54.9,98.3c-1.3,6.1-2.4,12.4-3.1,18.8
		c-0.2,1.7-0.4,3.5-0.6,5.2c-0.2,1.7-0.3,3.5-0.5,5.2c-0.4,5.3-0.6,10.6-0.6,16c0,56,19.8,103.9,59.6,143.5
		c39.7,39.7,87.5,59.6,143.5,59.6h171.5c10.5,0,20.7-0.7,30.6-2.1c4.7-0.6,9.3-1.5,13.9-2.4c0.6-0.2,1.3-0.3,1.9-0.5
		c4.4-1,8.8-2.1,13.1-3.4c2.9-0.9,2.9-0.9,0.1,0c3.1-0.9,6.1-1.9,9.2-3c1.8-0.7,3.7-1.4,5.5-2c2.7-1,5.4-2.1,8-3.3
		c0,0,0.1-0.1,0.1-0.1c10.4-4.5,20.3-10.2,29.9-16.7c6.9-4.6,13.5-9.7,19.9-15.4c3.9-3.4,7.7-6.9,11.4-10.7c3.5-3.5,6.8-7,9.9-10.6
		c30.2-34.5,46.7-74.8,49.3-120.9c0-0.5,0-1.1,0.1-1.6c0.1-1.8,0.2-3.6,0.2-5.5c25.8-4.8,54.5-4.8,86.2,0v-82.2
		C851.8,587,818.3,587.3,781.5,594.5L781.5,594.5z M369.4,455.8c-2.2-1.1-4.4-2.3-6.5-3.6c-0.3-0.1-0.5-0.3-0.7-0.4
		c-36.6-20.9-55.2-52.8-56.2-95.4c0-1.1,0-2.2,0-3.3c0-31.7,11.2-58.9,33.8-81.3c22.5-22.5,49.6-33.8,81.3-33.8h171.5
		c31.7,0,58.8,11.3,81.4,33.8c22.5,22.5,33.8,49.6,33.8,81.3c0,1.1,0,2.2,0,3.3c-0.9,42.5-19.5,74.3-55.8,95.3
		c-0.1,0-0.2,0.1-0.3,0.2c-2.4,1.4-4.8,2.8-7.2,4c-15.6,8-32.9,11.9-51.7,11.9H421.1C402.3,467.8,385,463.8,369.4,455.8L369.4,455.8
		z"/>
</g>
</svg>
